<svg class="css-4bextp" fill="none" xmlns="http://www.w3.org/2000/svg" viewBox="0 0 24 24"><g filter="url(#filter0_i_2074_384547)"><path d="M10.825 1.67839C11.5521 1.2586 12.4479 1.2586 13.175 1.67839L20.3513 5.82161C21.0784 6.2414 21.5263 7.0172 21.5263 7.85677V16.1432C21.5263 16.9828 21.0784 17.7586 20.3513 18.1784L13.175 22.3216C12.4479 22.7414 11.5521 22.7414 10.825 22.3216L3.64872 18.1784C2.92163 17.7586 2.47372 16.9828 2.47372 16.1432V7.85677C2.47372 7.0172 2.92163 6.2414 3.64872 5.82161L10.825 1.67839Z" fill="url(#paint0_linear_2074_384547)"/></g><path d="M13.425 1.24537C12.5432 0.73627 11.4568 0.736271 10.575 1.24537L3.39872 5.3886C2.51693 5.8977 1.97372 6.83857 1.97372 7.85677V16.1432C1.97372 17.1614 2.51693 18.1023 3.39872 18.6114L10.575 22.7546C11.4568 23.2637 12.5432 23.2637 13.425 22.7546L20.6013 18.6114C21.4831 18.1023 22.0263 17.1614 22.0263 16.1432V7.85677C22.0263 6.83857 21.4831 5.8977 20.6013 5.3886L13.425 1.24537Z" stroke="url(#paint1_linear_2074_384547)"/><path d="M7.89278 11.1368L12.5285 5.62474C12.8545 5.23706 13.4787 5.5676 13.3405 6.05478L12.3553 9.52817C12.2725 9.82016 12.4841 10.1127 12.7874 10.1255L15.986 10.2606C16.3683 10.2767 16.5719 10.7183 16.3358 11.0196L11.0342 17.7869C10.7114 18.1991 10.0581 17.8551 10.216 17.356L11.7054 12.6479C11.7987 12.353 11.5865 12.0501 11.2774 12.0371L8.23233 11.9085C7.84251 11.892 7.64162 11.4354 7.89278 11.1368Z" fill="url(#paint2_linear_2074_384547)"/><mask id="mask0_2074_384547" maskUnits="userSpaceOnUse" x="2" y="1" width="20" height="22"><path d="M10.825 1.67839C11.5521 1.2586 12.4479 1.2586 13.175 1.67839L20.3513 5.82161C21.0784 6.2414 21.5263 7.0172 21.5263 7.85677V16.1432C21.5263 16.9828 21.0784 17.7586 20.3513 18.1784L13.175 22.3216C12.4479 22.7414 11.5521 22.7414 10.825 22.3216L3.64872 18.1784C2.92163 17.7586 2.47372 16.9828 2.47372 16.1432V7.85677C2.47372 7.0172 2.92163 6.2414 3.64872 5.82161L10.825 1.67839Z" fill="url(#paint3_linear_2074_384547)"/></mask><g mask="url(#mask0_2074_384547)"><g opacity="0.24"><rect width="31.1003" height="6.24672" transform="matrix(0.8664 -0.499351 0.500649 0.86565 -1.03125 20.3613)" fill="white"/></g></g><ellipse cx="6.99102" cy="7.70782" rx="0.787897" ry="0.787897" fill="url(#paint4_linear_2074_384547)"/><ellipse cx="15.4663" cy="16.2065" rx="0.93115" ry="0.931151" fill="url(#paint5_linear_2074_384547)"/><ellipse cx="18.0282" cy="13.1583" rx="0.430507" ry="0.429762" fill="url(#paint6_linear_2074_384547)"/><defs><filter id="filter0_i_2074_384547" x="1.47266" y="0.363525" width="21.0547" height="23.2729" filterUnits="userSpaceOnUse" color-interpolation-filters="sRGB"><feFlood flood-opacity="0" result="BackgroundImageFix"/><feBlend mode="normal" in="SourceGraphic" in2="BackgroundImageFix" result="shape"/><feColorMatrix in="SourceAlpha" type="matrix" values="0 0 0 0 0 0 0 0 0 0 0 0 0 0 0 0 0 0 127 0" result="hardAlpha"/><feOffset/><feGaussianBlur stdDeviation="1.225"/><feComposite in2="hardAlpha" operator="arithmetic" k2="-1" k3="1"/><feColorMatrix type="matrix" values="0 0 0 0 1 0 0 0 0 0.621185 0 0 0 0 0.183333 0 0 0 1 0"/><feBlend mode="normal" in2="shape" result="effect1_innerShadow_2074_384547"/></filter><linearGradient id="paint0_linear_2074_384547" x1="-0.0312498" y1="-0.71875" x2="20.5937" y2="24.7188" gradientUnits="userSpaceOnUse"><stop stop-color="#FFDDD3"/><stop offset="1" stop-color="#FF6231"/></linearGradient><linearGradient id="paint1_linear_2074_384547" x1="3.52083" y1="4.4375" x2="19.7917" y2="19.5625" gradientUnits="userSpaceOnUse"><stop stop-color="#FFD3C5"/><stop offset="1" stop-color="#F26033"/></linearGradient><linearGradient id="paint2_linear_2074_384547" x1="14.0997" y1="3.99473" x2="13.6434" y2="19.7629" gradientUnits="userSpaceOnUse"><stop stop-color="white"/><stop offset="1" stop-color="#FFBFAB"/></linearGradient><linearGradient id="paint3_linear_2074_384547" x1="-0.0312498" y1="-0.71875" x2="20.5937" y2="24.7188" gradientUnits="userSpaceOnUse"><stop stop-color="#FFDDD3"/><stop offset="1" stop-color="#FF6231"/></linearGradient><linearGradient id="paint4_linear_2074_384547" x1="6.99102" y1="6.91992" x2="7.19639" y2="8.44536" gradientUnits="userSpaceOnUse"><stop stop-color="white"/><stop offset="1" stop-color="#FFBFAB"/></linearGradient><linearGradient id="paint5_linear_2074_384547" x1="15.4663" y1="15.2754" x2="15.709" y2="17.0782" gradientUnits="userSpaceOnUse"><stop stop-color="white"/><stop offset="1" stop-color="#FFBFAB"/></linearGradient><linearGradient id="paint6_linear_2074_384547" x1="18.0282" y1="12.7285" x2="18.14" y2="13.5606" gradientUnits="userSpaceOnUse"><stop stop-color="white"/><stop offset="1" stop-color="#FFBFAB"/></linearGradient></defs></svg>