<svg width="292" height="261" viewBox="0 0 292 261" fill="none" xmlns="http://www.w3.org/2000/svg">
  <g opacity="0.25" filter="url(#filter0_f_253_6308)">
    <circle cx="145.869" cy="114.563" r="57.5631" fill="#3FCA77"/>
  </g>
  <path fill-rule="evenodd" clip-rule="evenodd" d="M83.0378 57.5192C83.0378 57.2326 82.8053 57 82.5189 57C82.2325 57 82 57.2326 82 57.5192C82 57.8058 82.2325 58.0384 82.5189 58.0384C82.8053 58.0384 83.0378 57.8058 83.0378 57.5192ZM82.519 69.6925C82.8054 69.6925 83.0379 69.9251 83.0379 70.2117C83.0379 70.4983 82.8054 70.7309 82.519 70.7309C82.2326 70.7309 82.0001 70.4983 82.0001 70.2117C82.0001 69.9251 82.2326 69.6925 82.519 69.6925ZM83.0379 82.9016C83.0379 82.615 82.8054 82.3824 82.519 82.3824C82.2326 82.3824 82.0001 82.615 82.0001 82.9016C82.0001 83.1882 82.2326 83.4208 82.519 83.4208C82.8054 83.4208 83.0379 83.1882 83.0379 82.9016ZM82.519 95.0729C82.8054 95.0729 83.0379 95.3055 83.0379 95.5921C83.0379 95.8787 82.8054 96.1113 82.519 96.1113C82.2326 96.1113 82.0001 95.8787 82.0001 95.5921C82.0001 95.3055 82.2326 95.0729 82.519 95.0729ZM83.0379 108.284C83.0379 107.998 82.8054 107.765 82.519 107.765C82.2326 107.765 82.0001 107.998 82.0001 108.284C82.0001 108.571 82.2326 108.803 82.519 108.803C82.8054 108.803 83.0379 108.571 83.0379 108.284ZM82.519 120.458C82.8054 120.458 83.0379 120.69 83.0379 120.977C83.0379 121.263 82.8054 121.496 82.519 121.496C82.2326 121.496 82.0001 121.263 82.0001 120.977C82.0001 120.69 82.2326 120.458 82.519 120.458ZM83.0379 133.667C83.0379 133.38 82.8054 133.148 82.519 133.148C82.2326 133.148 82.0001 133.38 82.0001 133.667C82.0001 133.954 82.2326 134.186 82.519 134.186C82.8054 134.186 83.0379 133.954 83.0379 133.667ZM82.519 145.838C82.8054 145.838 83.0379 146.07 83.0379 146.357C83.0379 146.643 82.8054 146.876 82.519 146.876C82.2326 146.876 82.0001 146.643 82.0001 146.357C82.0001 146.07 82.2326 145.838 82.519 145.838ZM83.0379 159.049C83.0379 158.763 82.8054 158.53 82.519 158.53C82.2326 158.53 82.0001 158.763 82.0001 159.049C82.0001 159.336 82.2326 159.569 82.519 159.569C82.8054 159.569 83.0379 159.336 83.0379 159.049ZM83.0379 171.742C83.0379 171.455 82.8054 171.222 82.519 171.222C82.2326 171.222 82.0001 171.455 82.0001 171.742C82.0001 172.028 82.2326 172.261 82.519 172.261C82.8054 172.261 83.0379 172.028 83.0379 171.742ZM95.2012 171.222C95.4876 171.222 95.7201 171.455 95.7201 171.742C95.7201 172.028 95.4876 172.261 95.2012 172.261C94.9147 172.261 94.6823 172.028 94.6823 171.742C94.6823 171.455 94.9147 171.222 95.2012 171.222ZM95.7201 159.049C95.7201 158.763 95.4876 158.53 95.2012 158.53C94.9147 158.53 94.6823 158.763 94.6823 159.049C94.6823 159.336 94.9147 159.569 95.2012 159.569C95.4876 159.569 95.7201 159.336 95.7201 159.049ZM95.2012 145.838C95.4876 145.838 95.7201 146.07 95.7201 146.357C95.7201 146.643 95.4876 146.876 95.2012 146.876C94.9147 146.876 94.6823 146.643 94.6823 146.357C94.6823 146.07 94.9147 145.838 95.2012 145.838ZM95.7201 133.667C95.7201 133.38 95.4876 133.148 95.2012 133.148C94.9147 133.148 94.6823 133.38 94.6823 133.667C94.6823 133.954 94.9147 134.186 95.2012 134.186C95.4876 134.186 95.7201 133.954 95.7201 133.667ZM95.2012 120.458C95.4876 120.458 95.7201 120.69 95.7201 120.977C95.7201 121.263 95.4876 121.496 95.2012 121.496C94.9147 121.496 94.6823 121.263 94.6823 120.977C94.6823 120.69 94.9147 120.458 95.2012 120.458ZM95.7201 108.284C95.7201 107.998 95.4876 107.765 95.2012 107.765C94.9147 107.765 94.6823 107.998 94.6823 108.284C94.6823 108.571 94.9147 108.803 95.2012 108.803C95.4876 108.803 95.7201 108.571 95.7201 108.284ZM95.2012 95.0729C95.4876 95.0729 95.7201 95.3055 95.7201 95.5921C95.7201 95.8787 95.4876 96.1113 95.2012 96.1113C94.9147 96.1113 94.6823 95.8787 94.6823 95.5921C94.6823 95.3055 94.9147 95.0729 95.2012 95.0729ZM95.7201 82.9016C95.7201 82.615 95.4876 82.3824 95.2012 82.3824C94.9147 82.3824 94.6823 82.615 94.6823 82.9016C94.6823 83.1882 94.9147 83.4208 95.2012 83.4208C95.4876 83.4208 95.7201 83.1882 95.7201 82.9016ZM95.2012 69.6925C95.4876 69.6925 95.7201 69.9251 95.7201 70.2117C95.7201 70.4983 95.4876 70.7309 95.2012 70.7309C94.9147 70.7309 94.6823 70.4983 94.6823 70.2117C94.6823 69.9251 94.9147 69.6925 95.2012 69.6925ZM95.7201 57.5192C95.7201 57.2326 95.4876 57 95.2012 57C94.9147 57 94.6823 57.2326 94.6823 57.5192C94.6823 57.8058 94.9147 58.0384 95.2012 58.0384C95.4876 58.0384 95.7201 57.8058 95.7201 57.5192ZM107.887 171.222C108.174 171.222 108.406 171.455 108.406 171.742C108.406 172.028 108.174 172.261 107.887 172.261C107.601 172.261 107.368 172.028 107.368 171.742C107.368 171.455 107.601 171.222 107.887 171.222ZM108.406 159.049C108.406 158.763 108.174 158.53 107.887 158.53C107.601 158.53 107.368 158.763 107.368 159.049C107.368 159.336 107.601 159.569 107.887 159.569C108.174 159.569 108.406 159.336 108.406 159.049ZM107.887 145.838C108.174 145.838 108.406 146.07 108.406 146.357C108.406 146.643 108.174 146.876 107.887 146.876C107.601 146.876 107.368 146.643 107.368 146.357C107.368 146.07 107.601 145.838 107.887 145.838ZM108.406 133.667C108.406 133.38 108.174 133.148 107.887 133.148C107.601 133.148 107.368 133.38 107.368 133.667C107.368 133.954 107.601 134.186 107.887 134.186C108.174 134.186 108.406 133.954 108.406 133.667ZM107.887 120.458C108.174 120.458 108.406 120.69 108.406 120.977C108.406 121.263 108.174 121.496 107.887 121.496C107.601 121.496 107.368 121.263 107.368 120.977C107.368 120.69 107.601 120.458 107.887 120.458ZM108.406 108.284C108.406 107.998 108.174 107.765 107.887 107.765C107.601 107.765 107.368 107.998 107.368 108.284C107.368 108.571 107.601 108.803 107.887 108.803C108.174 108.803 108.406 108.571 108.406 108.284ZM107.887 95.0729C108.174 95.0729 108.406 95.3055 108.406 95.5921C108.406 95.8787 108.174 96.1113 107.887 96.1113C107.601 96.1113 107.368 95.8787 107.368 95.5921C107.368 95.3055 107.601 95.0729 107.887 95.0729ZM108.406 82.9016C108.406 82.615 108.174 82.3824 107.887 82.3824C107.601 82.3824 107.368 82.615 107.368 82.9016C107.368 83.1882 107.601 83.4208 107.887 83.4208C108.174 83.4208 108.406 83.1882 108.406 82.9016ZM107.887 69.6925C108.174 69.6925 108.406 69.9251 108.406 70.2117C108.406 70.4983 108.174 70.7309 107.887 70.7309C107.601 70.7309 107.368 70.4983 107.368 70.2117C107.368 69.9251 107.601 69.6925 107.887 69.6925ZM108.406 57.5192C108.406 57.2326 108.174 57 107.887 57C107.601 57 107.368 57.2326 107.368 57.5192C107.368 57.8058 107.601 58.0384 107.887 58.0384C108.174 58.0384 108.406 57.8058 108.406 57.5192ZM120.571 171.222C120.858 171.222 121.09 171.455 121.09 171.742C121.09 172.028 120.858 172.261 120.571 172.261C120.285 172.261 120.052 172.028 120.052 171.742C120.052 171.455 120.285 171.222 120.571 171.222ZM121.09 159.049C121.09 158.763 120.858 158.53 120.571 158.53C120.285 158.53 120.052 158.763 120.052 159.049C120.052 159.336 120.285 159.569 120.571 159.569C120.858 159.569 121.09 159.336 121.09 159.049ZM120.571 145.838C120.858 145.838 121.09 146.07 121.09 146.357C121.09 146.643 120.858 146.876 120.571 146.876C120.285 146.876 120.052 146.643 120.052 146.357C120.052 146.07 120.285 145.838 120.571 145.838ZM121.09 133.667C121.09 133.38 120.858 133.148 120.571 133.148C120.285 133.148 120.052 133.38 120.052 133.667C120.052 133.954 120.285 134.186 120.571 134.186C120.858 134.186 121.09 133.954 121.09 133.667ZM120.571 120.458C120.858 120.458 121.09 120.69 121.09 120.977C121.09 121.263 120.858 121.496 120.571 121.496C120.285 121.496 120.052 121.263 120.052 120.977C120.052 120.69 120.285 120.458 120.571 120.458ZM121.09 108.284C121.09 107.998 120.858 107.765 120.571 107.765C120.285 107.765 120.052 107.998 120.052 108.284C120.052 108.571 120.285 108.803 120.571 108.803C120.858 108.803 121.09 108.571 121.09 108.284ZM120.571 95.0729C120.858 95.0729 121.09 95.3055 121.09 95.5921C121.09 95.8787 120.858 96.1113 120.571 96.1113C120.285 96.1113 120.052 95.8787 120.052 95.5921C120.052 95.3055 120.285 95.0729 120.571 95.0729ZM121.09 82.9016C121.09 82.615 120.858 82.3824 120.571 82.3824C120.285 82.3824 120.052 82.615 120.052 82.9016C120.052 83.1882 120.285 83.4208 120.571 83.4208C120.858 83.4208 121.09 83.1882 121.09 82.9016ZM120.571 69.6925C120.858 69.6925 121.09 69.9251 121.09 70.2117C121.09 70.4983 120.858 70.7309 120.571 70.7309C120.285 70.7309 120.052 70.4983 120.052 70.2117C120.052 69.9251 120.285 69.6925 120.571 69.6925ZM121.09 57.5192C121.09 57.2326 120.858 57 120.571 57C120.285 57 120.052 57.2326 120.052 57.5192C120.052 57.8058 120.285 58.0384 120.571 58.0384C120.858 58.0384 121.09 57.8058 121.09 57.5192ZM133.254 171.222C133.541 171.222 133.773 171.455 133.773 171.742C133.773 172.028 133.541 172.261 133.254 172.261C132.968 172.261 132.736 172.028 132.736 171.742C132.736 171.455 132.968 171.222 133.254 171.222ZM133.773 159.049C133.773 158.763 133.541 158.53 133.254 158.53C132.968 158.53 132.736 158.763 132.736 159.049C132.736 159.336 132.968 159.569 133.254 159.569C133.541 159.569 133.773 159.336 133.773 159.049ZM133.254 145.838C133.541 145.838 133.773 146.07 133.773 146.357C133.773 146.643 133.541 146.876 133.254 146.876C132.968 146.876 132.736 146.643 132.736 146.357C132.736 146.07 132.968 145.838 133.254 145.838ZM133.773 133.667C133.773 133.38 133.541 133.148 133.254 133.148C132.968 133.148 132.736 133.38 132.736 133.667C132.736 133.954 132.968 134.186 133.254 134.186C133.541 134.186 133.773 133.954 133.773 133.667ZM133.254 120.458C133.541 120.458 133.773 120.69 133.773 120.977C133.773 121.263 133.541 121.496 133.254 121.496C132.968 121.496 132.736 121.263 132.736 120.977C132.736 120.69 132.968 120.458 133.254 120.458ZM133.773 108.284C133.773 107.998 133.541 107.765 133.254 107.765C132.968 107.765 132.736 107.998 132.736 108.284C132.736 108.571 132.968 108.803 133.254 108.803C133.541 108.803 133.773 108.571 133.773 108.284ZM133.254 95.0729C133.541 95.0729 133.773 95.3055 133.773 95.5921C133.773 95.8787 133.541 96.1113 133.254 96.1113C132.968 96.1113 132.736 95.8787 132.736 95.5921C132.736 95.3055 132.968 95.0729 133.254 95.0729ZM133.773 82.9016C133.773 82.615 133.541 82.3824 133.254 82.3824C132.968 82.3824 132.736 82.615 132.736 82.9016C132.736 83.1882 132.968 83.4208 133.254 83.4208C133.541 83.4208 133.773 83.1882 133.773 82.9016ZM133.254 69.6925C133.541 69.6925 133.773 69.9251 133.773 70.2117C133.773 70.4983 133.541 70.7309 133.254 70.7309C132.968 70.7309 132.736 70.4983 132.736 70.2117C132.736 69.9251 132.968 69.6925 133.254 69.6925ZM133.773 57.5192C133.773 57.2326 133.541 57 133.254 57C132.968 57 132.736 57.2326 132.736 57.5192C132.736 57.8058 132.968 58.0384 133.254 58.0384C133.541 58.0384 133.773 57.8058 133.773 57.5192ZM145.938 171.222C146.224 171.222 146.456 171.455 146.456 171.742C146.456 172.028 146.224 172.261 145.938 172.261C145.651 172.261 145.419 172.028 145.419 171.742C145.419 171.455 145.651 171.222 145.938 171.222ZM146.456 159.049C146.456 158.763 146.224 158.53 145.938 158.53C145.651 158.53 145.419 158.763 145.419 159.049C145.419 159.336 145.651 159.569 145.938 159.569C146.224 159.569 146.456 159.336 146.456 159.049ZM145.938 145.838C146.224 145.838 146.456 146.07 146.456 146.357C146.456 146.643 146.224 146.876 145.938 146.876C145.651 146.876 145.419 146.643 145.419 146.357C145.419 146.07 145.651 145.838 145.938 145.838ZM146.456 133.667C146.456 133.38 146.224 133.148 145.938 133.148C145.651 133.148 145.419 133.38 145.419 133.667C145.419 133.954 145.651 134.186 145.938 134.186C146.224 134.186 146.456 133.954 146.456 133.667ZM145.938 120.458C146.224 120.458 146.456 120.69 146.456 120.977C146.456 121.263 146.224 121.496 145.938 121.496C145.651 121.496 145.419 121.263 145.419 120.977C145.419 120.69 145.651 120.458 145.938 120.458ZM146.456 108.284C146.456 107.998 146.224 107.765 145.938 107.765C145.651 107.765 145.419 107.998 145.419 108.284C145.419 108.571 145.651 108.803 145.938 108.803C146.224 108.803 146.456 108.571 146.456 108.284ZM145.938 95.0729C146.224 95.0729 146.456 95.3055 146.456 95.5921C146.456 95.8787 146.224 96.1113 145.938 96.1113C145.651 96.1113 145.419 95.8787 145.419 95.5921C145.419 95.3055 145.651 95.0729 145.938 95.0729ZM146.456 82.9016C146.456 82.615 146.224 82.3824 145.938 82.3824C145.651 82.3824 145.419 82.615 145.419 82.9016C145.419 83.1882 145.651 83.4208 145.938 83.4208C146.224 83.4208 146.456 83.1882 146.456 82.9016ZM145.938 69.6925C146.224 69.6925 146.456 69.9251 146.456 70.2117C146.456 70.4983 146.224 70.7309 145.938 70.7309C145.651 70.7309 145.419 70.4983 145.419 70.2117C145.419 69.9251 145.651 69.6925 145.938 69.6925ZM146.456 57.5192C146.456 57.2326 146.224 57 145.938 57C145.651 57 145.419 57.2326 145.419 57.5192C145.419 57.8058 145.651 58.0384 145.938 58.0384C146.224 58.0384 146.456 57.8058 146.456 57.5192ZM158.623 171.222C158.909 171.222 159.141 171.455 159.141 171.742C159.141 172.028 158.909 172.261 158.623 172.261C158.336 172.261 158.104 172.028 158.104 171.742C158.104 171.455 158.336 171.222 158.623 171.222ZM159.141 159.049C159.141 158.763 158.909 158.53 158.623 158.53C158.336 158.53 158.104 158.763 158.104 159.049C158.104 159.336 158.336 159.569 158.623 159.569C158.909 159.569 159.141 159.336 159.141 159.049ZM158.623 145.838C158.909 145.838 159.141 146.07 159.141 146.357C159.141 146.643 158.909 146.876 158.623 146.876C158.336 146.876 158.104 146.643 158.104 146.357C158.104 146.07 158.336 145.838 158.623 145.838ZM159.141 133.667C159.141 133.38 158.909 133.148 158.623 133.148C158.336 133.148 158.104 133.38 158.104 133.667C158.104 133.954 158.336 134.186 158.623 134.186C158.909 134.186 159.141 133.954 159.141 133.667ZM158.623 120.458C158.909 120.458 159.141 120.69 159.141 120.977C159.141 121.263 158.909 121.496 158.623 121.496C158.336 121.496 158.104 121.263 158.104 120.977C158.104 120.69 158.336 120.458 158.623 120.458ZM159.141 108.284C159.141 107.998 158.909 107.765 158.623 107.765C158.336 107.765 158.104 107.998 158.104 108.284C158.104 108.571 158.336 108.803 158.623 108.803C158.909 108.803 159.141 108.571 159.141 108.284ZM158.623 95.0729C158.909 95.0729 159.141 95.3055 159.141 95.5921C159.141 95.8787 158.909 96.1113 158.623 96.1113C158.336 96.1113 158.104 95.8787 158.104 95.5921C158.104 95.3055 158.336 95.0729 158.623 95.0729ZM159.141 82.9016C159.141 82.615 158.909 82.3824 158.623 82.3824C158.336 82.3824 158.104 82.615 158.104 82.9016C158.104 83.1882 158.336 83.4208 158.623 83.4208C158.909 83.4208 159.141 83.1882 159.141 82.9016ZM158.623 69.6925C158.909 69.6925 159.141 69.9251 159.141 70.2117C159.141 70.4983 158.909 70.7309 158.623 70.7309C158.336 70.7309 158.104 70.4983 158.104 70.2117C158.104 69.9251 158.336 69.6925 158.623 69.6925ZM159.141 57.5192C159.141 57.2326 158.909 57 158.623 57C158.336 57 158.104 57.2326 158.104 57.5192C158.104 57.8058 158.336 58.0384 158.623 58.0384C158.909 58.0384 159.141 57.8058 159.141 57.5192ZM171.309 171.222C171.595 171.222 171.828 171.455 171.828 171.742C171.828 172.028 171.595 172.261 171.309 172.261C171.022 172.261 170.79 172.028 170.79 171.742C170.79 171.455 171.022 171.222 171.309 171.222ZM171.828 159.049C171.828 158.763 171.595 158.53 171.309 158.53C171.022 158.53 170.79 158.763 170.79 159.049C170.79 159.336 171.022 159.569 171.309 159.569C171.595 159.569 171.828 159.336 171.828 159.049ZM171.309 145.838C171.595 145.838 171.828 146.07 171.828 146.357C171.828 146.643 171.595 146.876 171.309 146.876C171.022 146.876 170.79 146.643 170.79 146.357C170.79 146.07 171.022 145.838 171.309 145.838ZM171.828 133.667C171.828 133.38 171.595 133.148 171.309 133.148C171.022 133.148 170.79 133.38 170.79 133.667C170.79 133.954 171.022 134.186 171.309 134.186C171.595 134.186 171.828 133.954 171.828 133.667ZM171.309 120.458C171.595 120.458 171.828 120.69 171.828 120.977C171.828 121.263 171.595 121.496 171.309 121.496C171.022 121.496 170.79 121.263 170.79 120.977C170.79 120.69 171.022 120.458 171.309 120.458ZM171.828 108.284C171.828 107.998 171.595 107.765 171.309 107.765C171.022 107.765 170.79 107.998 170.79 108.284C170.79 108.571 171.022 108.803 171.309 108.803C171.595 108.803 171.828 108.571 171.828 108.284ZM171.309 95.0729C171.595 95.0729 171.828 95.3055 171.828 95.5921C171.828 95.8787 171.595 96.1113 171.309 96.1113C171.022 96.1113 170.79 95.8787 170.79 95.5921C170.79 95.3055 171.022 95.0729 171.309 95.0729ZM171.828 82.9016C171.828 82.615 171.595 82.3824 171.309 82.3824C171.022 82.3824 170.79 82.615 170.79 82.9016C170.79 83.1882 171.022 83.4208 171.309 83.4208C171.595 83.4208 171.828 83.1882 171.828 82.9016ZM171.309 69.6925C171.595 69.6925 171.828 69.9251 171.828 70.2117C171.828 70.4983 171.595 70.7309 171.309 70.7309C171.022 70.7309 170.79 70.4983 170.79 70.2117C170.79 69.9251 171.022 69.6925 171.309 69.6925ZM171.828 57.5192C171.828 57.2326 171.595 57 171.309 57C171.022 57 170.79 57.2326 170.79 57.5192C170.79 57.8058 171.022 58.0384 171.309 58.0384C171.595 58.0384 171.828 57.8058 171.828 57.5192ZM183.99 171.222C184.276 171.222 184.509 171.455 184.509 171.742C184.509 172.028 184.276 172.261 183.99 172.261C183.703 172.261 183.471 172.028 183.471 171.742C183.471 171.455 183.703 171.222 183.99 171.222ZM184.509 159.049C184.509 158.763 184.276 158.53 183.99 158.53C183.703 158.53 183.471 158.763 183.471 159.049C183.471 159.336 183.703 159.569 183.99 159.569C184.276 159.569 184.509 159.336 184.509 159.049ZM183.99 145.838C184.276 145.838 184.509 146.07 184.509 146.357C184.509 146.643 184.276 146.876 183.99 146.876C183.703 146.876 183.471 146.643 183.471 146.357C183.471 146.07 183.703 145.838 183.99 145.838ZM184.509 133.667C184.509 133.38 184.276 133.148 183.99 133.148C183.703 133.148 183.471 133.38 183.471 133.667C183.471 133.954 183.703 134.186 183.99 134.186C184.276 134.186 184.509 133.954 184.509 133.667ZM183.99 120.458C184.276 120.458 184.509 120.69 184.509 120.977C184.509 121.263 184.276 121.496 183.99 121.496C183.703 121.496 183.471 121.263 183.471 120.977C183.471 120.69 183.703 120.458 183.99 120.458ZM184.509 108.284C184.509 107.998 184.276 107.765 183.99 107.765C183.703 107.765 183.471 107.998 183.471 108.284C183.471 108.571 183.703 108.803 183.99 108.803C184.276 108.803 184.509 108.571 184.509 108.284ZM183.99 95.0729C184.276 95.0729 184.509 95.3055 184.509 95.5921C184.509 95.8787 184.276 96.1113 183.99 96.1113C183.703 96.1113 183.471 95.8787 183.471 95.5921C183.471 95.3055 183.703 95.0729 183.99 95.0729ZM184.509 82.9016C184.509 82.615 184.276 82.3824 183.99 82.3824C183.703 82.3824 183.471 82.615 183.471 82.9016C183.471 83.1882 183.703 83.4208 183.99 83.4208C184.276 83.4208 184.509 83.1882 184.509 82.9016ZM183.99 69.6925C184.276 69.6925 184.509 69.9251 184.509 70.2117C184.509 70.4983 184.276 70.7309 183.99 70.7309C183.703 70.7309 183.471 70.4983 183.471 70.2117C183.471 69.9251 183.703 69.6925 183.99 69.6925ZM184.509 57.5192C184.509 57.2326 184.276 57 183.99 57C183.703 57 183.471 57.2326 183.471 57.5192C183.471 57.8058 183.703 58.0384 183.99 58.0384C184.276 58.0384 184.509 57.8058 184.509 57.5192ZM196.675 171.222C196.961 171.222 197.193 171.455 197.193 171.742C197.193 172.028 196.961 172.261 196.675 172.261C196.388 172.261 196.156 172.028 196.156 171.742C196.156 171.455 196.388 171.222 196.675 171.222ZM197.193 159.049C197.193 158.763 196.961 158.53 196.675 158.53C196.388 158.53 196.156 158.763 196.156 159.049C196.156 159.336 196.388 159.569 196.675 159.569C196.961 159.569 197.193 159.336 197.193 159.049ZM196.675 145.838C196.961 145.838 197.193 146.07 197.193 146.357C197.193 146.643 196.961 146.876 196.675 146.876C196.388 146.876 196.156 146.643 196.156 146.357C196.156 146.07 196.388 145.838 196.675 145.838ZM197.193 133.667C197.193 133.38 196.961 133.148 196.675 133.148C196.388 133.148 196.156 133.38 196.156 133.667C196.156 133.954 196.388 134.186 196.675 134.186C196.961 134.186 197.193 133.954 197.193 133.667ZM196.675 120.458C196.961 120.458 197.193 120.69 197.193 120.977C197.193 121.263 196.961 121.496 196.675 121.496C196.388 121.496 196.156 121.263 196.156 120.977C196.156 120.69 196.388 120.458 196.675 120.458ZM197.193 108.284C197.193 107.998 196.961 107.765 196.675 107.765C196.388 107.765 196.156 107.998 196.156 108.284C196.156 108.571 196.388 108.803 196.675 108.803C196.961 108.803 197.193 108.571 197.193 108.284ZM196.675 95.0729C196.961 95.0729 197.193 95.3055 197.193 95.5921C197.193 95.8787 196.961 96.1113 196.675 96.1113C196.388 96.1113 196.156 95.8787 196.156 95.5921C196.156 95.3055 196.388 95.0729 196.675 95.0729ZM197.193 82.9016C197.193 82.615 196.961 82.3824 196.675 82.3824C196.388 82.3824 196.156 82.615 196.156 82.9016C196.156 83.1882 196.388 83.4208 196.675 83.4208C196.961 83.4208 197.193 83.1882 197.193 82.9016ZM196.675 69.6925C196.961 69.6925 197.193 69.9251 197.193 70.2117C197.193 70.4983 196.961 70.7309 196.675 70.7309C196.388 70.7309 196.156 70.4983 196.156 70.2117C196.156 69.9251 196.388 69.6925 196.675 69.6925ZM197.193 57.5192C197.193 57.2326 196.961 57 196.675 57C196.388 57 196.156 57.2326 196.156 57.5192C196.156 57.8058 196.388 58.0384 196.675 58.0384C196.961 58.0384 197.193 57.8058 197.193 57.5192ZM209.36 171.222C209.646 171.222 209.879 171.455 209.879 171.742C209.879 172.028 209.646 172.261 209.36 172.261C209.074 172.261 208.841 172.028 208.841 171.742C208.841 171.455 209.074 171.222 209.36 171.222ZM209.879 159.049C209.879 158.763 209.646 158.53 209.36 158.53C209.074 158.53 208.841 158.763 208.841 159.049C208.841 159.336 209.074 159.569 209.36 159.569C209.646 159.569 209.879 159.336 209.879 159.049ZM209.36 145.838C209.646 145.838 209.879 146.07 209.879 146.357C209.879 146.643 209.646 146.876 209.36 146.876C209.074 146.876 208.841 146.643 208.841 146.357C208.841 146.07 209.074 145.838 209.36 145.838ZM209.879 133.667C209.879 133.38 209.646 133.148 209.36 133.148C209.074 133.148 208.841 133.38 208.841 133.667C208.841 133.954 209.074 134.186 209.36 134.186C209.646 134.186 209.879 133.954 209.879 133.667ZM209.36 120.458C209.646 120.458 209.879 120.69 209.879 120.977C209.879 121.263 209.646 121.496 209.36 121.496C209.074 121.496 208.841 121.263 208.841 120.977C208.841 120.69 209.074 120.458 209.36 120.458ZM209.879 108.284C209.879 107.998 209.646 107.765 209.36 107.765C209.074 107.765 208.841 107.998 208.841 108.284C208.841 108.571 209.074 108.803 209.36 108.803C209.646 108.803 209.879 108.571 209.879 108.284ZM209.36 95.0729C209.646 95.0729 209.879 95.3055 209.879 95.5921C209.879 95.8787 209.646 96.1113 209.36 96.1113C209.074 96.1113 208.841 95.8787 208.841 95.5921C208.841 95.3055 209.074 95.0729 209.36 95.0729ZM209.879 82.9016C209.879 82.615 209.646 82.3824 209.36 82.3824C209.074 82.3824 208.841 82.615 208.841 82.9016C208.841 83.1882 209.074 83.4208 209.36 83.4208C209.646 83.4208 209.879 83.1882 209.879 82.9016ZM209.36 69.6925C209.646 69.6925 209.879 69.9251 209.879 70.2117C209.879 70.4983 209.646 70.7309 209.36 70.7309C209.074 70.7309 208.841 70.4983 208.841 70.2117C208.841 69.9251 209.074 69.6925 209.36 69.6925ZM209.879 57.5192C209.879 57.2326 209.646 57 209.36 57C209.074 57 208.841 57.2326 208.841 57.5192C208.841 57.8058 209.074 58.0384 209.36 58.0384C209.646 58.0384 209.879 57.8058 209.879 57.5192Z" fill="url(#paint0_radial_253_6308)"/>
  <path d="M174.906 110.307L187.914 104.009L187.75 105.809C187.221 111.622 183.615 116.644 178.405 118.832L172.927 121.131L174.906 110.307Z" fill="url(#paint1_linear_253_6308)"/>
  <path d="M172.212 127.198L182.011 123.339C180.704 129.802 176.138 135.028 170.071 137.002L168.109 137.639L172.208 127.194L172.212 127.198Z" fill="url(#paint2_linear_253_6308)"/>
  <path d="M170.125 95.5014L192.469 84.9553L191.651 93.9478C191.476 95.869 190.294 97.5309 188.577 98.2685L176.702 103.377L172.248 128.235C171.2 134.081 168.469 139.457 164.415 143.658L168.749 96.0546L170.125 95.5014Z" fill="url(#paint3_linear_253_6308)"/>
  <path d="M116.748 110.307L103.741 104.009L103.904 105.809C104.434 111.622 108.039 116.644 113.249 118.832L118.727 121.131L116.748 110.307Z" fill="url(#paint4_linear_253_6308)"/>
  <path d="M119.443 127.198L109.643 123.339C110.95 129.802 115.516 135.028 121.583 137.002L123.545 137.639L119.446 127.194L119.443 127.198Z" fill="url(#paint5_linear_253_6308)"/>
  <path d="M121.529 95.5014L99.1846 84.9553L100.003 93.9478C100.178 95.869 101.36 97.5309 103.077 98.2685L114.952 103.377L119.406 128.235C120.454 134.081 123.185 139.457 127.239 143.658L122.905 96.0546L121.529 95.5014Z" fill="url(#paint6_linear_253_6308)"/>
  <path d="M145.477 151.132C142.367 151.132 139.4 149.652 137.519 147.165C134.604 148.397 131.308 148.162 128.642 146.621C125.948 145.066 124.118 142.3 123.732 139.207C120.637 138.818 117.871 136.988 116.32 134.297C114.765 131.604 114.564 128.295 115.775 125.423C113.29 123.541 111.81 120.573 111.81 117.464C111.81 114.355 113.291 111.387 115.775 109.505C114.567 106.627 114.769 103.317 116.324 100.628C117.878 97.9355 120.641 96.1074 123.732 95.7208C124.118 92.6289 125.948 89.8632 128.642 88.3061C131.312 86.7648 134.608 86.5333 137.518 87.7616C139.4 85.2787 142.367 83.7979 145.477 83.7979C148.588 83.7979 151.555 85.2787 153.434 87.763C156.392 86.5136 159.681 86.7911 162.31 88.3074C165.004 89.8632 166.834 92.6289 167.22 95.7221C170.31 96.1088 173.075 97.9381 174.632 100.631C176.184 103.321 176.385 106.63 175.177 109.506C177.662 111.388 179.142 114.356 179.142 117.465C179.142 120.574 177.661 123.542 175.177 125.424C176.388 128.297 176.186 131.607 174.628 134.301C173.079 136.991 170.316 138.819 167.22 139.208C166.834 142.3 165.003 145.067 162.31 146.623C159.643 148.162 156.347 148.402 153.433 147.166C151.552 149.652 148.586 151.134 145.475 151.134L145.477 151.132Z" fill="url(#paint7_linear_253_6308)"/>
  <path style="mix-blend-mode:multiply" d="M145.477 151.132C142.367 151.132 139.4 149.652 137.519 147.165C134.604 148.397 131.308 148.162 128.642 146.621C125.948 145.066 124.118 142.3 123.732 139.207C120.637 138.818 117.871 136.988 116.32 134.297C114.765 131.604 114.564 128.295 115.775 125.423C113.29 123.541 111.81 120.573 111.81 117.464C111.81 114.355 113.291 111.387 115.775 109.505C114.567 106.627 114.769 103.317 116.324 100.628C117.878 97.9355 120.641 96.1074 123.732 95.7208C124.118 92.6289 125.948 89.8632 128.642 88.3061C131.312 86.7648 134.608 86.5333 137.518 87.7616C139.4 85.2787 142.367 83.7979 145.477 83.7979C148.588 83.7979 151.555 85.2787 153.434 87.763C156.392 86.5136 159.681 86.7911 162.31 88.3074C165.004 89.8632 166.834 92.6289 167.22 95.7221C170.31 96.1088 173.075 97.9381 174.632 100.631C176.184 103.321 176.385 106.63 175.177 109.506C177.662 111.388 179.142 114.356 179.142 117.465C179.142 120.574 177.661 123.542 175.177 125.424C176.388 128.297 176.186 131.607 174.628 134.301C173.079 136.991 170.316 138.819 167.22 139.208C166.834 142.3 165.003 145.067 162.31 146.623C159.643 148.162 156.347 148.402 153.433 147.166C151.552 149.652 148.586 151.134 145.475 151.134L145.477 151.132Z" fill="url(#paint8_linear_253_6308)"/>
  <path d="M145.478 96.4231C133.876 96.4231 124.435 105.863 124.435 117.465C124.435 129.068 133.876 138.507 145.478 138.507C157.079 138.507 166.52 129.068 166.52 117.465C166.52 105.863 157.079 96.4231 145.478 96.4231ZM154.997 116.862L151.627 120.152L152.423 124.794C152.546 125.511 152.251 126.238 151.66 126.666C151.08 127.087 150.301 127.155 149.646 126.81L145.478 124.619L141.307 126.81C140.665 127.148 139.884 127.096 139.294 126.666C138.703 126.239 138.409 125.512 138.531 124.794L139.327 120.152L135.956 116.862C135.433 116.354 135.246 115.593 135.47 114.901C135.695 114.209 136.297 113.704 137.014 113.6L141.676 112.921L143.761 108.698C144.404 107.39 146.549 107.39 147.19 108.698L149.275 112.921L153.938 113.6C154.654 113.704 155.256 114.208 155.481 114.901C155.705 115.593 155.518 116.354 154.995 116.862H154.997Z" fill="url(#paint9_linear_253_6308)"/>
  <defs>
    <filter id="filter0_f_253_6308" x="0.360588" y="-30.9456" width="291.017" height="291.017" filterUnits="userSpaceOnUse" color-interpolation-filters="sRGB">
      <feFlood flood-opacity="0" result="BackgroundImageFix"/>
      <feBlend mode="normal" in="SourceGraphic" in2="BackgroundImageFix" result="shape"/>
      <feGaussianBlur stdDeviation="43.9728" result="effect1_foregroundBlur_253_6308"/>
    </filter>
    <radialGradient id="paint0_radial_253_6308" cx="0" cy="0" r="1" gradientUnits="userSpaceOnUse" gradientTransform="translate(145.939 114.63) rotate(90) scale(57.6304 63.9393)">
      <stop offset="0.354167" stop-color="#DDFFEB"/>
      <stop offset="1" stop-color="#0B582A" stop-opacity="0"/>
    </radialGradient>
    <linearGradient id="paint1_linear_253_6308" x1="186.749" y1="103.699" x2="182.55" y2="112.851" gradientUnits="userSpaceOnUse">
      <stop stop-color="#FCE161"/>
      <stop offset="0.489583" stop-color="#F4AD4C"/>
      <stop offset="1" stop-color="#F6C14C"/>
    </linearGradient>
    <linearGradient id="paint2_linear_253_6308" x1="180.916" y1="123.066" x2="177.59" y2="130.969" gradientUnits="userSpaceOnUse">
      <stop stop-color="#FCE161"/>
      <stop offset="0.489583" stop-color="#F4AD4C"/>
      <stop offset="1" stop-color="#F6C14C"/>
    </linearGradient>
    <linearGradient id="paint3_linear_253_6308" x1="190.528" y1="84.1158" x2="171.973" y2="106.592" gradientUnits="userSpaceOnUse">
      <stop stop-color="#FCE161"/>
      <stop offset="0.489583" stop-color="#F4AD4C"/>
      <stop offset="1" stop-color="#F6C14C"/>
    </linearGradient>
    <linearGradient id="paint4_linear_253_6308" x1="105.807" y1="104.459" x2="110.309" y2="118.412" gradientUnits="userSpaceOnUse">
      <stop stop-color="#FCE161"/>
      <stop offset="0.489583" stop-color="#F4AD4C"/>
      <stop offset="1" stop-color="#F6C14C"/>
    </linearGradient>
    <linearGradient id="paint5_linear_253_6308" x1="111.576" y1="123.699" x2="115.135" y2="135.587" gradientUnits="userSpaceOnUse">
      <stop stop-color="#FCE161"/>
      <stop offset="0.489583" stop-color="#F4AD4C"/>
      <stop offset="1" stop-color="#F6C14C"/>
    </linearGradient>
    <linearGradient id="paint6_linear_253_6308" x1="102.774" y1="86.7604" x2="124.606" y2="126.775" gradientUnits="userSpaceOnUse">
      <stop stop-color="#FCE161"/>
      <stop offset="0.489583" stop-color="#F4AD4C"/>
      <stop offset="1" stop-color="#F6C14C"/>
    </linearGradient>
    <linearGradient id="paint7_linear_253_6308" x1="179.142" y1="117.466" x2="111.81" y2="117.466" gradientUnits="userSpaceOnUse">
      <stop stop-color="#29E28D"/>
      <stop offset="1" stop-color="#28D6FC"/>
    </linearGradient>
    <linearGradient id="paint8_linear_253_6308" x1="179.142" y1="117.466" x2="111.81" y2="117.466" gradientUnits="userSpaceOnUse">
      <stop stop-color="#29E28D"/>
      <stop offset="1" stop-color="#28D6FC"/>
    </linearGradient>
    <linearGradient id="paint9_linear_253_6308" x1="145.478" y1="138.507" x2="145.478" y2="96.4231" gradientUnits="userSpaceOnUse">
      <stop stop-color="#C3FFE8"/>
      <stop offset="1" stop-color="#F0FFF4"/>
    </linearGradient>
  </defs>
</svg>
